<?xml version="1.0" encoding="UTF-8" standalone="no"?>
<svg width="18px" height="36px" viewBox="0 0 18 36" version="1.1" xmlns="http://www.w3.org/2000/svg" xmlns:xlink="http://www.w3.org/1999/xlink" xmlns:sketch="http://www.bohemiancoding.com/sketch/ns">
    <title>Slice 1</title>
    <description>Created with Sketch (http://www.bohemiancoding.com/sketch)</description>
    <defs></defs>
    <g id="Page-1" stroke="none" stroke-width="1" fill="none" fill-rule="evenodd" sketch:type="MSPage">
        <g id="markdown-sprite" sketch:type="MSLayerGroup">
            <g id="Page-1" sketch:type="MSShapeGroup">
                <path d="M1.37019231,12 C0.61466827,12 0,11.3691562 0,10.59375 L0,1.40625 C0,0.63084375 0.61466827,0 1.37019231,0 L16.6298077,0 C17.3853317,0 18,0.63084375 18,1.40625 L18,10.59375 C18,11.3691562 17.3853317,12 16.6298077,12 L1.37019231,12 L1.37019231,12 L1.37019231,12 L1.37019231,12 Z M16,5.9565217 L14.3333333,5.9565217 L14.3333333,3 L12.6666667,3 L12.6666667,5.9565217 L11,5.9565217 L13.5,9 L16,5.9565217 L16,5.9565217 L16,5.9565217 L16,5.9565217 Z M16,5.9565217" id="Markdown" fill="#BBBBBB"></path>
                <path d="M1.37019231,36 C0.61466827,36 0,35.3691562 0,34.59375 L0,25.40625 C0,24.6308438 0.61466827,24 1.37019231,24 L16.6298077,24 C17.3853317,24 18,24.6308438 18,25.40625 L18,34.59375 C18,35.3691562 17.3853317,36 16.6298077,36 L1.37019231,36 L1.37019231,36 L1.37019231,36 L1.37019231,36 Z M16,29.9565217 L14.3333333,29.9565217 L14.3333333,27 L12.6666667,27 L12.6666667,29.9565217 L11,29.9565217 L13.5,33 L16,29.9565217 L16,29.9565217 L16,29.9565217 L16,29.9565217 Z M16,29.9565217" id="Markdown-On" fill="#78B2F2"></path>
            </g>
        </g>
        <text id="A" fill="#FFFFFF" sketch:type="MSTextLayer" font-family="Verdana" font-size="10" font-weight="normal">
            <tspan x="3" y="33">A</tspan>
        </text>
        <text id="A" fill="#FFFFFF" sketch:type="MSTextLayer" font-family="Verdana" font-size="10" font-weight="normal">
            <tspan x="3" y="9">A</tspan>
        </text>
    </g>
</svg>